<svg width="50" height="50" viewBox="0 0 50 50" fill="none" xmlns="http://www.w3.org/2000/svg">
    <g id="logo">
        <svg class="w-6 h-6 text-gray-800 dark:text-white" aria-hidden="true" xmlns="http://www.w3.org/2000/svg"
             fill="none" viewBox="0 0 20 16">
            <path stroke="currentColor" stroke-linecap="round" stroke-linejoin="round" stroke-width="2"
                  d="M5 4 1 8l4 4m10-8 4 4-4 4M11 1 9 15"/>
        </svg>
    </g>

    <g id="profile">
        <svg class="w-6 h-6 text-gray-800 dark:text-white" aria-hidden="true" xmlns="http://www.w3.org/2000/svg"
             fill="none" viewBox="0 0 20 16">
            <path stroke="currentColor" stroke-linecap="round" stroke-linejoin="round" stroke-width="2"
                  d="M3.656 12.115a3 3 0 0 1 5.682-.015M13 5h3m-3 3h3m-3 3h3M2 1h16a1 1 0 0 1 1 1v12a1 1 0 0 1-1 1H2a1 1 0 0 1-1-1V2a1 1 0 0 1 1-1Zm6.5 4.5a2 2 0 1 1-4 0 2 2 0 0 1 4 0Z"/>
        </svg>
    </g>

    <g id="messages">
        <svg class="w-6 h-6 text-gray-800 dark:text-white" aria-hidden="true" xmlns="http://www.w3.org/2000/svg"
             fill="currentColor" viewBox="0 0 24 24">
            <path d="M20 3H4a2 2 0 0 0-2 2v9a2 2 0 0 0 2 2h2v4a1 1 0 0 0 1.707.707L12.414 16H20a2 2 0 0 0 2-2V5a2 2 0 0 0-2-2ZM7.5 11a1.5 1.5 0 1 1 0-3 1.5 1.5 0 0 1 0 3Zm4.5 0a1.5 1.5 0 1 1 0-3 1.5 1.5 0 0 1 0 3Zm4.5 0a1.5 1.5 0 1 1 0-3 1.5 1.5 0 0 1 0 3Z"/>
        </svg>
    </g>

    <g id="users">
        <svg class="w-6 h-6 text-gray-800 dark:text-white" aria-hidden="true" xmlns="http://www.w3.org/2000/svg"
             fill="none" viewBox="0 0 20 20">
            <path stroke="currentColor" stroke-linecap="round" stroke-linejoin="round" stroke-width="2"
                  d="M4.333 6.764a3 3 0 1 1 3.141-5.023M2.5 16H1v-2a4 4 0 0 1 4-4m7.379-8.121a3 3 0 1 1 2.976 5M15 10a4 4 0 0 1 4 4v2h-1.761M13 7a3 3 0 1 1-6 0 3 3 0 0 1 6 0Zm-4 6h2a4 4 0 0 1 4 4v2H5v-2a4 4 0 0 1 4-4Z"/>
        </svg>
    </g>

    <g id="news">
        <svg class="w-6 h-6 text-gray-800 dark:text-white" aria-hidden="true" xmlns="http://www.w3.org/2000/svg"
             fill="none" viewBox="0 0 20 20">
            <path stroke="currentColor" stroke-linecap="round" stroke-linejoin="round" stroke-width="2"
                  d="M18 5h1v12a2 2 0 0 1-2 2m0 0a2 2 0 0 1-2-2V2a1 1 0 0 0-1-1H2a1 1 0 0 0-1 1v15a2 2 0 0 0 2 2h14ZM10 4h2m-2 3h2m-8 3h8m-8 3h8m-8 3h8M4 4h3v3H4V4Z"/>
        </svg>
    </g>

    <g id="music">
        <svg class="w-6 h-6 text-gray-800 dark:text-white" aria-hidden="true" xmlns="http://www.w3.org/2000/svg"
             fill="none" viewBox="0 0 18 16">
            <path stroke="currentColor" stroke-linecap="round" stroke-linejoin="round" stroke-width="2"
                  d="M14 11.5V1s3 1 3 4m-7-3H1m9 4H1m4 4H1m13 2.4c0 1.325-1.343 2.4-3 2.4s-3-1.075-3-2.4S9.343 10 11 10s3 1.075 3 2.4Z"/>
        </svg>
    </g>

    <g id="settings">
        <svg class="w-6 h-6 text-gray-800 dark:text-white" aria-hidden="true" xmlns="http://www.w3.org/2000/svg"
             fill="none" viewBox="0 0 20 20">
            <g stroke="currentColor" stroke-linecap="round" stroke-linejoin="round" stroke-width="2">
                <path d="M19 11V9a1 1 0 0 0-1-1h-.757l-.707-1.707.535-.536a1 1 0 0 0 0-1.414l-1.414-1.414a1 1 0 0 0-1.414 0l-.536.535L12 2.757V2a1 1 0 0 0-1-1H9a1 1 0 0 0-1 1v.757l-1.707.707-.536-.535a1 1 0 0 0-1.414 0L2.929 4.343a1 1 0 0 0 0 1.414l.536.536L2.757 8H2a1 1 0 0 0-1 1v2a1 1 0 0 0 1 1h.757l.707 1.707-.535.536a1 1 0 0 0 0 1.414l1.414 1.414a1 1 0 0 0 1.414 0l.536-.535L8 17.243V18a1 1 0 0 0 1 1h2a1 1 0 0 0 1-1v-.757l1.707-.708.536.536a1 1 0 0 0 1.414 0l1.414-1.414a1 1 0 0 0 0-1.414l-.535-.536.707-1.707H18a1 1 0 0 0 1-1Z"/>
                <path d="M10 13a3 3 0 1 0 0-6 3 3 0 0 0 0 6Z"/>
            </g>
        </svg>
    </g>
</svg>